<svg xmlns="http://www.w3.org/2000/svg" viewBox="0 0 32 32">
  <rect width="32" height="32" rx="7" fill="#0D1B2E"/>
  <g transform="rotate(-28 16 16)">
    <rect x="13.4" y="11.2" width="5.2" height="9.2" rx="1.3" fill="#FFFFFF"/>
    <rect x="8.1" y="12.4" width="4.1" height="6.8" rx="0.8" fill="#8BB7F0"/>
    <rect x="19.8" y="12.4" width="4.1" height="6.8" rx="0.8" fill="#8BB7F0"/>
    <line x1="12.2" y1="15.8" x2="13.4" y2="15.8" stroke="#FFFFFF" stroke-width="1.4" stroke-linecap="round"/>
    <line x1="18.6" y1="15.8" x2="19.8" y2="15.8" stroke="#FFFFFF" stroke-width="1.4" stroke-linecap="round"/>
    <line x1="16" y1="8.5" x2="16" y2="11.2" stroke="#FFFFFF" stroke-width="1.4" stroke-linecap="round"/>
    <line x1="16" y1="20.4" x2="16" y2="23.1" stroke="#FFFFFF" stroke-width="1.4" stroke-linecap="round"/>
    <path d="M13.8 24.2c1.4-1.1 3-1.1 4.4 0" fill="none" stroke="#FFFFFF" stroke-width="1.4" stroke-linecap="round"/>
  </g>
  <path d="M21.7 9.5c2.6.8 4.4 2.8 5 5.5" fill="none" stroke="#3B7DD8" stroke-width="1.8" stroke-linecap="round"/>
  <path d="M22.2 12.1c1.3.4 2.2 1.4 2.5 2.7" fill="none" stroke="#8BB7F0" stroke-width="1.5" stroke-linecap="round"/>
</svg>
